<?xml version="1.0" encoding="UTF-8"?>
<!DOCTYPE svg PUBLIC "-//W3C//DTD SVG 1.1//EN" "http://www.w3.org/Graphics/SVG/1.1/DTD/svg11.dtd">
<svg xmlns="http://www.w3.org/2000/svg" version="1.1" width="2000px" height="2000px" style="shape-rendering:geometricPrecision; text-rendering:geometricPrecision; image-rendering:optimizeQuality; fill-rule:evenodd; clip-rule:evenodd" xmlns:xlink="http://www.w3.org/1999/xlink">
<g><path style="opacity:0.999" fill="#4a42c6" d="M 955.5,-0.5 C 984.833,-0.5 1014.17,-0.5 1043.5,-0.5C 1297.13,14.3576 1515.46,108.858 1698.5,283C 1883.65,468.39 1983.98,692.557 1999.5,955.5C 1999.5,984.833 1999.5,1014.17 1999.5,1043.5C 1984.64,1297.13 1890.14,1515.47 1716,1698.5C 1530.61,1883.65 1306.44,1983.98 1043.5,1999.5C 1014.17,1999.5 984.833,1999.5 955.5,1999.5C 701.867,1984.64 483.534,1890.14 300.5,1716C 115.562,1530.91 15.2291,1307.07 -0.5,1044.5C -0.5,1014.5 -0.5,984.5 -0.5,954.5C 15.2278,691.932 115.561,468.099 300.5,283C 483.534,108.86 701.867,14.3604 955.5,-0.5 Z"/></g>
<g><path style="opacity:1" fill="#fcfdfe" d="M 975.5,311.5 C 1167.34,308.696 1333.34,371.863 1473.5,501C 1630.8,655.568 1700.96,843.401 1684,1064.5C 1661.8,1260.12 1574.64,1419.28 1422.5,1542C 1274.8,1654.43 1108.13,1701.43 922.5,1683C 732.303,1658.35 577.47,1571.85 458,1423.5C 334.302,1260.03 289.302,1076.7 323,873.5C 353.418,720.45 425.918,591.616 540.5,487C 664.641,377.981 809.641,319.481 975.5,311.5 Z"/></g>
<g><path style="opacity:1" fill="#4a42c7" d="M 973.5,362.5 C 1173.21,360.52 1340.71,432.187 1476,577.5C 1603.82,726.007 1655.15,898.007 1630,1093.5C 1601.06,1267.99 1516.23,1407.82 1375.5,1513C 1232.02,1614.28 1073.02,1652.28 898.5,1627C 711.727,1593.72 566.227,1498.55 462,1341.5C 377.361,1205.65 346.694,1058.31 370,899.5C 401.359,726.831 486.859,588.331 626.5,484C 729.96,409.232 845.627,368.732 973.5,362.5 Z"/></g>
<g><path style="opacity:1" fill="#adaae2" d="M 871.5,663.5 C 826.5,663.5 781.5,663.5 736.5,663.5C 736.5,861.833 736.5,1060.17 736.5,1258.5C 782.5,1258.5 828.5,1258.5 874.5,1258.5C 828.336,1259.5 782.003,1259.83 735.5,1259.5C 735.5,1060.5 735.5,861.5 735.5,662.5C 781.003,662.168 826.336,662.501 871.5,663.5 Z"/></g>
<g><path style="opacity:1" fill="#fefefe" d="M 871.5,663.5 C 917.11,726.125 962.777,788.791 1008.5,851.5C 1054.69,789.141 1100.69,726.641 1146.5,664C 1191.83,663.5 1237.17,663.333 1282.5,663.5C 1282.5,861.833 1282.5,1060.17 1282.5,1258.5C 1236.5,1258.5 1190.5,1258.5 1144.5,1258.5C 1144.83,1134 1144.5,1009.67 1143.5,885.5C 1137.46,885.171 1131.46,885.504 1125.5,886.5C 1086.85,939.139 1047.85,991.473 1008.5,1043.5C 969.856,991.559 931.69,939.226 894,886.5C 887.59,885.522 881.09,885.189 874.5,885.5C 874.5,1009.83 874.5,1134.17 874.5,1258.5C 828.5,1258.5 782.5,1258.5 736.5,1258.5C 736.5,1060.17 736.5,861.833 736.5,663.5C 781.5,663.5 826.5,663.5 871.5,663.5 Z"/></g>
<g><path style="opacity:1" fill="#fdfdfe" d="M 570.5,908.5 C 605.837,904.975 633.004,917.975 652,947.5C 670.077,985.539 664.244,1019.37 634.5,1049C 609.17,1068.93 581.503,1072.93 551.5,1061C 511.867,1039.9 497.034,1007.4 507,963.5C 518.475,933.864 539.642,915.53 570.5,908.5 Z"/></g>
<g><path style="opacity:1" fill="#fdfefe" d="M 1403.5,910.5 C 1436.84,906.434 1463.34,917.768 1483,944.5C 1495.99,968.251 1497.99,992.918 1489,1018.5C 1470.4,1056.05 1440.24,1071.88 1398.5,1066C 1364.48,1056.32 1343.98,1034.15 1337,999.5C 1333.59,950.441 1355.76,920.775 1403.5,910.5 Z"/></g>
<g><path style="opacity:1" fill="#a5a2df" d="M 1143.5,885.5 C 1144.5,1009.67 1144.83,1134 1144.5,1258.5C 1190.5,1258.5 1236.5,1258.5 1282.5,1258.5C 1236.34,1259.5 1190,1259.83 1143.5,1259.5C 1143.5,1134.83 1143.5,1010.17 1143.5,885.5 Z"/></g>
</svg>
